<svg width="70" height="70" viewBox="0 0 70 70" fill="none" xmlns="http://www.w3.org/2000/svg">
<g clip-path="url(#clip0_35_223)">
<path d="M23.3334 70C29.7734 70 35.0001 64.7733 35.0001 58.3333V46.6666H23.3334C16.8934 46.6666 11.6667 51.8933 11.6667 58.3333C11.6667 64.7733 16.8934 70 23.3334 70Z" fill="#0ACF83"/>
<path d="M11.6667 35C11.6667 28.56 16.8934 23.3334 23.3334 23.3334H35.0001V46.6667H23.3334C16.8934 46.6667 11.6667 41.44 11.6667 35Z" fill="#A259FF"/>
<path d="M11.6667 11.6667C11.6667 5.22667 16.8934 0 23.3334 0H35.0001V23.3333H23.3334C16.8934 23.3333 11.6667 18.1067 11.6667 11.6667Z" fill="#F24E1E"/>
<path d="M35 0H46.6667C53.1067 0 58.3333 5.22667 58.3333 11.6667C58.3333 18.1067 53.1067 23.3333 46.6667 23.3333H35V0Z" fill="#FF7262"/>
<path d="M58.3333 35C58.3333 41.44 53.1067 46.6667 46.6667 46.6667C40.2267 46.6667 35 41.44 35 35C35 28.56 40.2267 23.3334 46.6667 23.3334C53.1067 23.3334 58.3333 28.56 58.3333 35Z" fill="#1ABCFE"/>
</g>
<defs>
<clipPath id="clip0_35_223">
<rect width="70" height="70" fill="white"/>
</clipPath>
</defs>
</svg>
