<svg width="70" height="70" viewBox="0 0 70 70" fill="none" xmlns="http://www.w3.org/2000/svg">
<g clip-path="url(#clip0_35_173)">
<path d="M18.655 35.7058C16.9866 38.1383 15.5779 50.7033 12.7925 50.7033C9.99829 50.7033 13.2008 42.7292 14.0904 39.9787C3.6137 51.6629 -3.5263 45.2987 1.88704 30.4267C6.0987 18.8446 16.7125 7.69124 23.3625 17.6896C24.2666 19.0108 23.9108 21.595 22.2629 21.595C20.367 21.595 20.262 17.2317 17.2258 17.2317C11.2904 17.2317 2.28662 35.3354 4.73954 40.8712C6.58287 45.0858 14.2683 36.4058 15.6479 33.4921C16.8466 30.1817 17.3045 26.145 19.7166 26.9587C22.0004 27.7404 19.4337 33.4337 18.655 35.7058ZM41.7608 39.9612C37.7854 45.3046 29.9016 49.2362 31.7741 40.7837C28.8837 45.9229 21.347 47.9179 21.347 42.4783C21.9741 38.4767 23.6804 34.5625 25.4333 30.9108C26.1975 29.2687 27.542 29.0675 28.455 29.6829C30.2429 30.905 26.95 33.6087 25.4858 38.8646C25.2875 39.5762 24.9958 40.8567 25.3575 41.5042C25.7862 42.2625 27.4808 41.5946 28.2333 41.0492C32.6491 37.8671 33.7516 31.3367 35.035 29.8287C35.6037 29.155 36.5983 29.2133 37.0883 29.8492C37.9516 30.9721 37.2837 32.165 35.7875 35.5571C35.0262 37.2867 33.0254 42.2217 34.9066 42.2217C37.0095 42.2217 40.2879 39.0133 41.577 37.0125L41.7608 39.9612Z" fill="#CF4547"/>
<path d="M42.3295 38.8763C39.8532 44.9721 45.5874 40.6671 49.8457 36.3592C50.5895 35.5833 51.9516 36.3854 51.1262 38.2054C50.8112 38.8996 44.8466 45.6925 40.8828 45.6925C35.4957 45.6925 39.8212 36.6275 41.6703 31.9783C46.6024 19.8158 47.5562 14.6679 50.2745 16.8058C51.727 17.9463 50.2482 18.4829 42.3295 38.8763Z" fill="#CF4547"/>
<path d="M68.2939 34.9446C70.4085 33.5008 70.4668 36.7617 69.0085 37.9167C65.4472 41.0725 64.5868 42.0496 62.6064 43.5488C59.2493 46.0863 54.2414 46.7483 54.2414 43.4292C54.3085 40.4367 60.5093 35.4783 60.5093 33.5533C60.5093 32.0133 54.7518 32.2175 48.618 48.3467C47.256 51.9517 45.818 57.8813 43.0005 55.8571C41.3993 54.6846 44.3393 49.9129 47.6001 42.5104C50.6364 35.6475 51.9576 28.0058 54.3697 30.4646C54.953 31.0596 54.5564 32.9233 54.3347 33.4688C60.4568 26.7808 65.771 29.4992 63.7789 33.9792C62.6443 36.5313 60.5297 38.7713 58.5551 41.0988C57.5401 42.3004 58.4005 42.8313 59.7014 42.0875C61.431 41.0958 66.5322 36.5196 68.2939 34.9446Z" fill="#CF4547"/>
</g>
<defs>
<clipPath id="clip0_35_173">
<rect width="70" height="70" fill="white"/>
</clipPath>
</defs>
</svg>
