<svg width="214" height="60" viewBox="0 0 214 60" fill="none" xmlns="http://www.w3.org/2000/svg">
<path d="M196.882 21.3563C196.362 21.3563 195.856 21.4627 195.409 21.7134L181.245 29.8114C180.328 30.3344 179.771 31.3217 179.771 32.3723V48.5388C179.771 49.5886 180.328 50.5747 181.245 51.0989L184.944 53.213C186.741 54.0898 187.403 54.0762 188.221 54.0762C190.882 54.0762 192.401 52.4777 192.401 49.6999V33.7416C192.401 33.516 192.204 33.3547 191.981 33.3547H190.206C189.979 33.3547 189.785 33.516 189.785 33.7416V49.6999C189.785 50.9309 188.49 52.1694 186.387 51.1287L182.538 48.8959C182.402 48.8227 182.297 48.6932 182.297 48.5388V32.3719C182.297 32.2188 182.4 32.0628 182.538 31.985L196.672 23.9173C196.736 23.8803 196.808 23.8609 196.882 23.8609C196.956 23.8609 197.029 23.8803 197.093 23.9173L211.227 31.9854C211.362 32.0657 211.468 32.2143 211.468 32.3727V48.5392C211.468 48.6936 211.389 48.8516 211.257 48.9261L197.093 56.9943C196.971 57.0658 196.804 57.0658 196.672 56.9943L193.033 54.8508C192.978 54.8211 192.916 54.8055 192.853 54.8055C192.79 54.8055 192.728 54.8211 192.672 54.8508C191.668 55.4144 191.479 55.4798 190.537 55.8034C190.305 55.8836 189.953 56.0082 190.657 56.3992L195.409 59.1675C195.857 59.4234 196.365 59.557 196.882 59.5548C197.4 59.558 197.908 59.4244 198.356 59.1679L212.52 51.0994C213.437 50.5718 213.993 49.589 213.993 48.5392V32.3723C213.993 31.3221 213.437 30.3365 212.52 29.8122L198.356 21.7143C197.912 21.4631 197.403 21.3567 196.882 21.3567L196.882 21.3563Z" fill="#83CD29"/>
<path d="M200.671 32.9082C196.638 32.9082 194.236 34.6077 194.236 37.4339C194.236 40.4992 196.62 41.3417 200.491 41.7208C205.122 42.1697 205.483 42.843 205.483 43.7454C205.483 45.3108 204.222 45.9783 201.243 45.9783C197.499 45.9783 196.677 45.053 196.401 43.2096C196.369 43.0118 196.215 42.8521 196.01 42.8521H194.176C193.95 42.8521 193.755 43.0449 193.755 43.2692C193.755 45.629 195.051 48.4197 201.243 48.4197C205.725 48.4197 208.31 46.678 208.31 43.6263C208.31 40.6014 206.222 39.7892 201.874 39.2202C197.481 38.6446 197.063 38.3628 197.063 37.3445C197.063 36.5037 197.418 35.379 200.671 35.379C203.578 35.379 204.652 35.9997 205.092 37.9399C205.131 38.122 205.293 38.2672 205.483 38.2672H207.318C207.431 38.2672 207.54 38.1985 207.618 38.1183C207.695 38.0326 207.75 37.9362 207.739 37.8208C207.454 34.4798 205.204 32.9082 200.671 32.9082Z" fill="#83CD29"/>
<path d="M113.611 0.158456C113.453 0.15856 113.297 0.19949 113.16 0.277215C113.023 0.356362 112.91 0.469381 112.831 0.605139C112.752 0.740896 112.71 0.894708 112.709 1.05142V23.8274C112.709 24.0509 112.604 24.2511 112.408 24.3633C112.313 24.4186 112.204 24.4477 112.093 24.4477C111.982 24.4477 111.873 24.4186 111.777 24.3633L108.018 22.2198C107.744 22.0628 107.432 21.9801 107.116 21.9801C106.799 21.9801 106.488 22.0628 106.213 22.2198L91.2073 30.794C90.6464 31.1147 90.3053 31.7309 90.3053 32.3722V49.5211C90.3053 50.1616 90.6468 50.7484 91.2073 51.0691L106.213 59.6437C106.487 59.8012 106.799 59.8841 107.116 59.8841C107.432 59.8841 107.744 59.8012 108.018 59.6437L123.024 51.0691C123.299 50.9125 123.527 50.6869 123.685 50.4151C123.844 50.1433 123.927 49.8349 123.926 49.5211V6.76797C123.926 6.44679 123.839 6.13147 123.676 5.8542C123.512 5.57693 123.277 5.34765 122.994 5.18977L114.062 0.247422C113.922 0.170043 113.767 0.156387 113.611 0.158456ZM17.0784 21.5648C16.7925 21.576 16.5233 21.6256 16.2667 21.7729L1.26013 30.3476C0.985239 30.5039 0.757012 30.7295 0.598603 31.0013C0.440195 31.2732 0.357242 31.5817 0.358162 31.8956L0.388255 54.9103C0.388255 55.2302 0.555023 55.5277 0.839239 55.6841C0.975498 55.7652 1.13147 55.808 1.29043 55.808C1.44939 55.808 1.60536 55.7652 1.74162 55.6841L10.643 50.623C11.2068 50.2911 11.5751 49.7143 11.5751 49.0746V38.3267C11.5751 37.6854 11.9157 37.0969 12.4774 36.7783L16.2663 34.6051C16.5402 34.4474 16.8518 34.3651 17.1687 34.3667C17.478 34.3667 17.7956 34.4433 18.0706 34.6051L21.8599 36.7783C22.135 36.9345 22.3635 37.1601 22.522 37.4321C22.6805 37.704 22.7634 38.0127 22.7623 38.3267V49.0742C22.7623 49.7139 23.1343 50.2949 23.6944 50.6226L32.5957 55.6841C32.732 55.7652 32.888 55.808 33.0469 55.808C33.2059 55.808 33.3619 55.7652 33.4981 55.6841C33.6353 55.6055 33.7492 55.4926 33.8284 55.3568C33.9076 55.2209 33.9494 55.0668 33.9495 54.9099L33.9788 31.8956C33.9806 31.5815 33.898 31.2727 33.7395 31.0007C33.581 30.7287 33.3523 30.5032 33.0768 30.3476L18.0706 21.7729C17.8169 21.6256 17.5469 21.5764 17.259 21.5648H17.0784ZM151.924 21.7729C151.61 21.7729 151.303 21.8516 151.022 22.0113L136.016 30.5859C135.741 30.7424 135.513 30.968 135.354 31.2398C135.196 31.5116 135.113 31.8201 135.113 32.1339V49.2827C135.113 49.9278 135.48 50.5121 136.045 50.8311L150.931 59.227C151.481 59.5373 152.152 59.5609 152.706 59.256L161.727 54.2842C162.014 54.127 162.207 53.8332 162.208 53.5105C162.21 53.3533 162.169 53.1986 162.09 53.0624C162.01 52.9263 161.896 52.8136 161.758 52.7362L146.661 44.1616C146.379 44.0019 146.18 43.6787 146.18 43.3576V37.999C146.18 37.6783 146.381 37.3845 146.661 37.2248L151.352 34.5451C151.489 34.4665 151.645 34.4251 151.803 34.4251C151.962 34.4251 152.118 34.4665 152.255 34.5451L156.945 37.2248C157.083 37.303 157.197 37.4157 157.276 37.5516C157.356 37.6875 157.397 37.8417 157.397 37.9986V42.2263C157.396 42.3832 157.438 42.5374 157.517 42.6733C157.596 42.8092 157.71 42.922 157.848 43.0001C158.129 43.1611 158.469 43.1615 158.75 43.0001L167.742 37.8207C168.016 37.6635 168.244 37.4378 168.402 37.166C168.561 36.8942 168.644 36.586 168.644 36.2722V32.1343C168.644 31.495 168.302 30.907 167.742 30.5859L152.826 22.0113C152.552 21.8543 152.24 21.7721 151.924 21.7734V21.7729ZM107.055 34.5753C107.134 34.5753 107.226 34.5943 107.296 34.6345L112.439 37.5819C112.578 37.6618 112.679 37.8095 112.679 37.9688V43.8637C112.679 44.0238 112.579 44.1711 112.439 44.251L107.296 47.1985C107.227 47.2373 107.15 47.2577 107.07 47.2577C106.991 47.2577 106.914 47.2373 106.845 47.1985L101.703 44.251C101.563 44.1707 101.462 44.0238 101.462 43.8637V37.9688C101.462 37.8091 101.563 37.6626 101.703 37.5819L106.845 34.6349C106.908 34.5959 106.981 34.5754 107.056 34.5757V34.5753H107.055Z" fill="#404137"/>
<path d="M62.1572 21.6836C61.8446 21.6836 61.5353 21.7622 61.2552 21.9219L46.2491 30.4668C45.6877 30.7866 45.3467 31.404 45.3467 32.0446V49.1934C45.3467 49.8348 45.6882 50.4207 46.2491 50.7418L61.2552 59.316C61.5292 59.4736 61.8405 59.5566 62.1574 59.5566C62.4743 59.5566 62.7856 59.4736 63.0596 59.316L78.0657 50.7418C78.3405 50.5852 78.5685 50.3595 78.7269 50.0876C78.8853 49.8157 78.9684 49.5073 78.9677 49.1934V32.0446C78.9677 31.4032 78.6267 30.7866 78.0657 30.4668L63.0596 21.9219C62.7853 21.7651 62.474 21.6829 62.1572 21.6836ZM151.894 36.9869C151.834 36.9869 151.767 36.9869 151.714 37.0167L148.827 38.6839C148.773 38.7135 148.728 38.7566 148.696 38.8089C148.664 38.8612 148.647 38.9208 148.646 38.9818V42.2566C148.646 42.3799 148.718 42.4928 148.827 42.5545L151.714 44.1919C151.822 44.2539 151.937 44.2539 152.044 44.1919L154.931 42.5541C154.985 42.5243 155.03 42.4812 155.061 42.429C155.093 42.3769 155.11 42.3174 155.112 42.2566V38.9814C155.11 38.9205 155.093 38.8611 155.061 38.8089C155.03 38.7567 154.985 38.7136 154.931 38.6839L152.044 37.0163C151.991 36.9853 151.954 36.9873 151.894 36.9873V36.9869Z" fill="#83CD29"/>
</svg>
