<svg width="96" height="70" viewBox="0 0 96 70" fill="none" xmlns="http://www.w3.org/2000/svg">
<g clip-path="url(#clip0_35_187)">
<path d="M64.1745 63.0758V63.0817C64.1745 66.9025 61.0851 70 57.2742 70C57.2713 70 57.2713 70 57.2684 70C57.2393 70 57.2044 70 57.1724 70C55.2902 70 53.5855 69.2242 52.3636 67.9729C51.104 66.7625 50.3186 65.0621 50.3186 63.175C50.3186 63.14 50.3186 63.1021 50.3186 63.0671V63.0729C50.336 59.2317 53.4371 56.1254 57.2655 56.105H57.2684H57.3702C59.2495 56.105 60.9484 56.8896 62.1527 58.1525L62.1556 58.1554C63.4007 59.3804 64.1745 61.0867 64.1745 62.9708V63.0846V63.0788V63.0758ZM32.6342 63.0758V63.1779C32.6342 65.0621 31.8516 66.7654 30.592 67.9729L30.5891 67.9758C29.3673 69.2242 27.6655 70 25.7862 70C25.7513 70 25.7135 70 25.6785 70H25.6844C25.6844 70 25.6815 70 25.6785 70C21.8676 70 18.7782 66.9025 18.7782 63.0817C18.7782 63.0788 18.7782 63.0788 18.7782 63.0758C18.7782 63.0467 18.7782 63.0117 18.7782 62.9796C18.7782 61.0925 19.552 59.3833 20.8 58.1583C22.0073 56.8954 23.7033 56.1079 25.5855 56.1079H25.6931H25.6873C29.5185 56.1254 32.6167 59.2346 32.6371 63.0729V63.0758H32.6342ZM0 0C1.45745 1.55167 2.976 2.9925 4.57309 4.34583L4.65455 4.41292C6.14691 5.65542 7.81382 6.80167 9.58255 7.79042L9.75127 7.87792C11.3484 8.79375 13.2335 9.68917 15.1913 10.4417L15.4793 10.5379C17.408 11.2613 19.7498 11.9233 22.1556 12.4075L22.4611 12.46C25.1976 13.0239 28.0049 13.4672 30.8829 13.79C33.761 14.1128 37.2703 14.3733 41.4109 14.5717C45.5515 14.77 49.8182 14.9042 54.2109 14.9742C58.6036 15.0442 63.8322 15.0792 69.8967 15.0792C73.7988 15.0792 77.2305 15.1492 80.192 15.2892C83.008 15.4058 85.6378 15.6567 88.224 16.0387L87.8138 15.9892C89.8007 16.2692 91.5666 16.6775 93.2684 17.22L93.0356 17.1558C94.1993 17.4854 95.2058 18.06 96.032 18.8271L96.0262 18.8242C96.5993 19.3813 96.9745 20.1425 97.0356 20.9883V21C97.0269 22.0063 96.7215 22.9425 96.2036 23.7213L96.2153 23.7038C95.4793 24.9229 94.6938 25.9788 93.8211 26.9529L93.8385 26.9325C92.8417 28.0719 91.5859 29.3533 90.0713 30.7767C88.5566 32.2 86.9275 33.671 85.184 35.1896C83.4405 36.7082 81.4895 38.3824 79.3309 40.2121C74.1372 44.6318 70.1227 48.1075 67.2873 50.6392C68.3142 48.8921 69.3818 47.3842 70.5629 45.9783L70.5222 46.0308C71.8545 44.3994 73.1733 42.9149 74.4785 41.5771C75.7838 40.2393 77.1103 38.8529 78.4582 37.4179C79.8061 35.9829 80.9697 34.6947 81.9491 33.5533C82.8218 32.5675 83.5811 31.4504 84.1833 30.2429L84.224 30.1554C84.5964 29.4904 84.8146 28.6971 84.8146 27.8512C84.8146 27.6208 84.7971 27.3963 84.768 27.1746L84.7709 27.2008C84.4625 26.18 83.776 25.3575 82.8771 24.8763L82.8567 24.8675C81.4429 24.045 79.7906 23.4383 78.0364 23.1467L77.952 23.135C75.4793 22.6596 72.5266 22.3038 69.5215 22.1492L69.3615 22.1433C65.793 21.9178 61.5263 21.8478 56.5615 21.9333C51.8449 21.9897 47.4366 21.9051 43.3367 21.6796C39.2369 21.454 35.6432 21.1303 32.5556 20.7083C29.2335 20.2621 26.3185 19.6583 23.4793 18.865L23.9447 18.9758C21.1811 18.2321 18.944 17.4854 16.7622 16.6308L17.2276 16.7913C15.2436 16.0067 13.5476 15.12 11.9535 14.0817L12.0669 14.1517C10.6065 13.2329 9.34982 12.3113 8.16 11.3079L8.21236 11.3517C7.17673 10.4271 6.24 9.43833 5.39345 8.37667L5.35564 8.33C4.63127 7.46375 3.93018 6.50708 3.29309 5.50375L3.22909 5.39292C2.76364 4.61514 2.20218 3.65847 1.54473 2.52292C0.887273 1.38736 0.373333 0.549306 0.00290909 0.00875L0 0Z" fill="#00C2FF"/>
</g>
<defs>
<clipPath id="clip0_35_187">
<rect width="96" height="70" fill="white"/>
</clipPath>
</defs>
</svg>
