<svg width="18" height="18" viewBox="0 0 18 18" fill="none" xmlns="http://www.w3.org/2000/svg">
<path d="M7.43398 4.53599C7.21911 2.06436 4.64061 0.851612 4.53148 0.802112C4.42947 0.754158 4.31515 0.738836 4.20411 0.758237C1.22736 1.25211 0.77961 2.98461 0.76161 3.05661C0.73712 3.15695 0.741015 3.26211 0.77286 3.36036C4.32336 14.3764 11.7022 16.4182 14.1277 17.0899C14.3145 17.1416 14.4686 17.1832 14.5856 17.2215C14.7191 17.2651 14.8642 17.2567 14.9917 17.1979C15.066 17.1641 16.8187 16.3384 17.2474 13.6451C17.2664 13.5275 17.2475 13.407 17.1934 13.3009C17.1551 13.2266 16.2382 11.4817 13.6957 10.8652C13.6095 10.8432 13.5192 10.8424 13.4325 10.863C13.3459 10.8836 13.2656 10.9249 13.1985 10.9834C12.3964 11.6685 11.2882 12.3986 10.8101 12.474C7.60498 10.9069 5.81511 7.89974 5.74761 7.32936C5.70823 7.00874 6.44286 5.88261 7.28773 4.96686C7.34084 4.90923 7.38128 4.84112 7.40647 4.76691C7.43166 4.6927 7.44103 4.61404 7.43398 4.53599Z" fill="#3F3DE9"/>
</svg>
