<svg width="101" height="101" viewBox="0 0 101 101" fill="none" xmlns="http://www.w3.org/2000/svg">
<path d="M50.5 26.0698C23.877 26.0698 2.29297 37.0078 2.29297 50.5C2.29297 63.9922 23.877 74.9301 50.5 74.9301C77.1229 74.9301 98.7069 63.9922 98.7069 50.5C98.7069 37.0078 77.1229 26.0698 50.5 26.0698ZM37.9562 55.2596C36.8058 56.3359 35.5283 56.7801 34.1214 57.2378C32.7145 57.6962 30.9241 57.6015 28.7471 57.6015H23.8131L22.4456 65.4922H16.6847L21.8254 38.664H32.9039C36.2369 38.664 38.668 39.6228 40.1964 41.3721C41.7248 43.1215 42.184 45.6046 41.5749 48.7396C41.3232 50.0313 40.8994 51.2322 40.3013 52.3022C39.7024 53.373 38.9205 54.3727 37.9562 55.2596ZM54.7719 57.6015L57.0452 46.2233C57.304 44.8913 57.2094 43.9018 56.7604 43.4182C56.3106 42.9337 55.3543 42.6094 53.8921 42.6094H49.3235L46.3795 57.6015H40.6635L45.8042 31.5625H51.5202L50.1536 38.664H55.2454C58.4498 38.664 60.6591 39.3071 61.8751 40.4244C63.091 41.5418 63.4556 43.0725 62.9695 45.5754L60.5779 57.6015H54.7719ZM86.5388 48.7814C86.2879 50.0731 85.8634 51.2535 85.266 52.3227C84.6679 53.3935 83.8868 54.3727 82.9217 55.2596C81.7713 56.3359 80.493 56.7801 79.0869 57.2378C77.6808 57.6962 75.8888 57.6015 73.7118 57.6015H68.7778L67.4111 65.4922H61.6502L66.7901 38.664H77.8694C81.2024 38.664 83.6335 39.6228 85.1611 41.3721C86.6879 43.1215 87.148 45.6473 86.5388 48.7814ZM75.686 42.6094H71.7399L69.5882 53.6562H73.0932C75.4146 53.6562 77.1458 53.4274 78.2821 52.5515C79.4199 51.6773 80.1861 50.3201 80.5845 48.274C80.9664 46.3085 80.7929 44.7753 80.0638 43.9673C79.3339 43.1593 77.8749 42.6094 75.686 42.6094ZM30.7213 42.6094H26.7744L24.6226 53.6562H28.1269C30.4491 53.6562 32.1795 53.4274 33.3165 52.5515C34.4536 51.6773 35.2205 50.3201 35.6182 48.274C36.0001 46.3085 35.8265 44.7753 35.0975 43.9673C34.3684 43.1593 32.9102 42.6094 30.7213 42.6094Z" fill="#6181B6"/>
</svg>
