<svg width="70" height="70" viewBox="0 0 70 70" fill="none" xmlns="http://www.w3.org/2000/svg">
<path d="M34.9999 41.2592C38.4583 41.2592 41.262 38.4555 41.262 34.9971C41.262 31.5386 38.4583 28.735 34.9999 28.735C31.5414 28.735 28.7378 31.5386 28.7378 34.9971C28.7378 38.4555 31.5414 41.2592 34.9999 41.2592Z" fill="#53C1DE"/>
<path d="M13.1658 46.0862C13.7812 46.2904 14.3967 46.4975 15.0267 46.6754C14.8225 47.495 14.6446 48.3029 14.4783 49.1371C13.0433 56.7262 14.1633 62.7404 17.745 64.8054C21.4375 66.9375 27.6442 64.75 33.6875 59.4591C34.1658 59.0362 34.6442 58.5987 35.1225 58.1321C35.7233 58.7212 36.3533 59.2812 36.9804 59.8266C42.8312 64.8579 48.615 66.8937 52.185 64.8316C55.8775 62.6996 57.0792 56.2333 55.5217 48.3583C55.3992 47.7575 55.2621 47.1421 55.1104 46.5121C55.5479 46.3896 55.9708 46.2525 56.3967 46.1154C64.2863 43.505 70 39.2787 70 34.9446C70 30.8029 64.6129 26.7837 57.1754 24.2258V24.2229C56.4375 23.9779 55.6996 23.7446 54.9617 23.5258C55.0842 23.0212 55.195 22.5137 55.3029 22.0091C56.9858 13.86 55.8775 7.31498 52.1442 5.15373C48.5479 3.08873 42.6825 5.23539 36.75 10.4037C36.1608 10.9083 35.5892 11.4421 35.0408 11.9758C34.6704 11.62 34.2883 11.2641 33.9062 10.9229C27.685 5.39873 21.4521 3.07414 17.7188 5.24998C14.1371 7.32956 13.0696 13.4954 14.5746 21.2012C14.7263 21.9683 14.8896 22.7179 15.0792 23.485C14.2042 23.73 13.3438 24.0041 12.5358 24.2929C5.23542 26.8216 0 30.8146 0 34.9446C0 39.2116 5.57667 43.4875 13.1658 46.0862ZM31.7596 57.225C29.505 59.29 26.8917 60.9291 24.0479 62.0521C22.5312 62.7754 20.7813 62.8454 19.2208 62.23C17.0479 60.9729 16.1437 56.1458 17.3746 49.6504C17.5262 48.8862 17.6896 48.1191 17.8792 47.3666C20.9417 48.0229 24.0304 48.475 27.1629 48.7054C28.9683 51.2633 30.9488 53.7104 33.0692 56.0058C32.6317 56.4287 32.1942 56.84 31.7567 57.2221L31.7596 57.225ZM49.1225 31.5525C48.4808 30.3479 47.8246 29.1462 47.1392 27.9708C46.4683 26.81 45.7713 25.6608 45.0479 24.5262C47.25 24.8004 49.3558 25.1679 51.3246 25.62C50.6946 27.6441 49.9567 29.6129 49.1225 31.5525ZM49.1488 38.36C50.0238 40.3433 50.7908 42.3529 51.4588 44.4179C49.3383 44.8962 47.1946 45.2666 45.0333 45.5116C45.7713 44.3625 46.4683 43.1871 47.1538 42.0116C47.8508 40.8071 48.5071 39.5908 49.1488 38.36ZM47.5679 34.9591C46.6521 36.8462 45.6663 38.7041 44.6163 40.5358C43.5779 42.3529 42.4696 44.1175 41.3088 45.8675C39.2729 46.0191 37.1525 46.0862 35.0058 46.0862C32.8592 46.0862 30.7825 46.0191 28.7729 45.8937C27.5829 44.1583 26.4629 42.3791 25.41 40.5621C24.3571 38.745 23.3858 36.8987 22.47 35.0116H22.4642C23.3654 33.1246 24.3512 31.2783 25.3896 29.4612C26.4279 27.6441 27.5508 25.8796 28.7263 24.1441C30.7767 23.9925 32.8679 23.9108 35.0029 23.9108C37.1379 23.9108 39.2408 23.9925 41.2796 24.1441C42.4404 25.8679 43.5488 27.6296 44.6017 29.435C45.6546 31.2404 46.6375 33.0866 47.5679 34.9591ZM22.8433 27.9971C22.1725 29.1579 21.5163 30.345 20.9008 31.5496C20.0404 29.5137 19.3142 27.5187 18.7133 25.5908C20.6821 25.1533 22.7733 24.7975 24.9463 24.5233C24.2258 25.6579 23.5142 26.8187 22.8433 27.9971ZM20.9037 38.4679C21.5338 39.6725 22.1754 40.8625 22.8579 42.0379C23.555 43.2279 24.2667 44.4179 25.0192 45.5787C22.8871 45.3454 20.7667 45.0041 18.6754 44.5521C19.2763 42.5833 20.0287 40.5475 20.9037 38.4679ZM35.1108 53.9C33.7167 52.3979 32.3225 50.7325 30.9692 48.9387C32.2817 48.9941 33.635 49.0204 35.0029 49.0204C36.4117 49.0204 37.7912 48.9941 39.1592 48.9241C37.9021 50.6596 36.5488 52.3162 35.1108 53.9ZM52.9813 58.0066C52.8558 59.6721 52.0363 61.2296 50.7238 62.2825C48.5508 63.5396 43.9162 61.9004 38.9113 57.6071C38.3367 57.1141 37.7621 56.5804 37.1758 56.035C39.2671 53.725 41.195 51.2779 42.945 48.7083C46.0746 48.4487 49.1925 47.9704 52.2696 47.2733C52.4067 47.8333 52.5292 48.3933 52.64 48.9416C53.3108 51.8962 53.4188 54.9704 52.9813 58.0066ZM54.1683 26.3433C54.88 26.5475 55.5625 26.7662 56.2188 26.985C62.5887 29.1725 67.06 32.4275 67.06 34.9154C67.06 37.5958 62.2883 41.055 55.4663 43.3096C55.0842 43.4321 54.7021 43.5546 54.3054 43.6654C53.3488 40.6846 52.1733 37.7737 50.82 34.9416C52.1325 32.1533 53.2408 29.2804 54.1683 26.3433ZM38.675 12.6175C43.7646 8.18998 48.5071 6.45456 50.6683 7.69706C52.9783 9.02414 53.8679 14.3821 52.4183 21.4229C52.3221 21.8866 52.2258 22.3387 52.1033 22.7908C49.0671 22.1083 45.9929 21.6154 42.9012 21.3412C41.125 18.795 39.1825 16.3625 37.0767 14.0787C37.6104 13.5741 38.1296 13.0958 38.675 12.6175ZM35.0292 16.1729C36.4642 17.7304 37.8175 19.3696 39.0746 21.0641C36.3679 20.9416 33.6467 20.9416 30.94 21.0641C32.2788 19.3025 33.6613 17.6633 35.0292 16.1729ZM19.1683 7.79331C21.4667 6.45456 26.565 8.36789 31.9375 13.125C32.2788 13.4254 32.62 13.755 32.9758 14.0816C30.8554 16.3625 28.9013 18.795 27.1104 21.3383C24.0217 21.6125 20.9592 22.0908 17.9229 22.7616C17.745 22.0646 17.5963 21.3529 17.4446 20.6412C16.1583 14.0233 17.0071 9.03581 19.1683 7.79331ZM13.4954 27.0666C14.2742 26.7925 15.0675 26.5475 15.8608 26.3141C16.7913 29.2804 17.9113 32.1941 19.2092 35.0087C17.8967 37.8671 16.7621 40.8187 15.82 43.8258L15.8171 43.8287C15.2425 43.6654 14.6825 43.4875 14.1225 43.295C11.2117 42.3791 7.90125 40.9296 5.50958 39.0308C4.13 38.0741 3.19958 36.5983 2.94 34.9416C2.94 32.4391 7.25958 29.2396 13.4954 27.0666Z" fill="#53C1DE"/>
</svg>
