<svg width="74" height="70" viewBox="0 0 74 70" fill="none" xmlns="http://www.w3.org/2000/svg">
<g clip-path="url(#clip0_35_165)">
<path d="M51.2742 48.6928C54.005 48.4123 56.0767 46.076 55.9824 43.2723C55.8885 40.4687 53.5341 38.2258 50.7091 38.2258H50.5209C47.6014 38.3193 45.3415 40.749 45.4357 43.646C45.5299 45.0479 46.0948 46.2628 46.9423 47.1039C43.7406 53.3655 38.8439 57.9447 31.4988 61.7763C26.5079 64.3931 21.3288 65.3277 16.1496 64.6736C11.912 64.1128 8.61608 62.2439 6.54408 59.1596C3.5309 54.5804 3.24848 49.6271 5.79107 44.6741C7.58037 41.1228 10.4051 38.506 12.1944 37.1976C11.8177 35.9828 11.2526 33.9268 10.9702 32.4317C-2.68424 42.2444 -1.27159 55.515 2.87183 61.7763C5.97925 66.4493 12.2886 69.3463 19.2571 69.3463C21.1403 69.3463 23.0235 69.1593 24.9071 68.6923C36.9607 66.3558 46.0951 59.2531 51.2742 48.6928ZM67.8479 37.1044C60.691 28.7868 50.1442 24.2076 38.0906 24.2076H36.584C35.7365 22.5255 33.9472 21.4038 31.9697 21.4038H31.7813C28.8623 21.4974 26.6024 23.9271 26.6964 26.8244C26.7906 29.6279 29.1447 31.8709 31.9697 31.8709H32.1579C34.2296 31.7774 36.0189 30.469 36.7722 28.6933H38.4673C45.6242 28.6933 52.4041 30.7493 58.5253 34.7679C63.2336 37.852 66.6237 41.8706 68.5069 46.7301C70.1078 50.6552 70.0135 54.4869 68.3185 57.758C65.6819 62.7109 61.2561 65.4212 55.4176 65.4212C51.6508 65.4212 48.0725 64.2996 46.189 63.4585C45.1533 64.3931 43.2698 65.8882 41.9513 66.8231C46.0008 68.692 50.1442 69.7201 54.0992 69.7201C63.1393 69.7201 69.8254 64.7669 72.368 59.8139C75.0987 54.3933 74.9103 45.0479 67.8479 37.1044ZM20.0103 50.2812C20.1046 53.085 22.4587 55.3277 25.2837 55.3277H25.4722C28.3914 55.2344 30.6513 52.8044 30.5571 49.9074C30.4631 47.1036 28.1087 44.8609 25.2837 44.8609H25.0955C24.9071 44.8609 24.6244 44.8609 24.4365 44.9541C20.5755 38.5993 18.9746 31.6839 19.5398 24.2074C19.9161 18.6001 21.7996 13.7403 25.0955 9.72165C27.8263 6.26381 33.0997 4.58165 36.6783 4.48842C46.6599 4.30138 50.8973 16.6373 51.18 21.5906C52.4041 21.8709 54.4758 22.5252 55.8885 22.9925C54.7583 7.85303 45.3415 0.00274658 36.3016 0.00274658C27.8263 0.00274658 20.0103 6.07735 16.9026 15.049C12.571 27.0112 15.396 38.506 20.6694 47.5712C20.1988 48.2252 19.9161 49.2533 20.0103 50.2815V50.2812Z" fill="#764ABC"/>
</g>
<defs>
<clipPath id="clip0_35_165">
<rect width="74" height="70" fill="white"/>
</clipPath>
</defs>
</svg>
