<svg width="24" height="24" viewBox="0 0 24 24" fill="none" xmlns="http://www.w3.org/2000/svg">
<path d="M21.1872 3.6876H20.3124V2.8116C20.3114 2.066 20.0148 1.35123 19.4874 0.824127C18.9601 0.297022 18.2452 0.000635025 17.4996 0L2.7816 0C2.04407 0.000635529 1.33693 0.2939 0.815414 0.815414C0.2939 1.33693 0.000635529 2.04407 0 2.7816L0 21.0468C0.000951978 21.8295 0.312233 22.58 0.8656 23.1336C1.41897 23.6871 2.16926 23.9987 2.952 24H21.1872C21.933 23.9994 22.6481 23.7028 23.1754 23.1754C23.7028 22.6481 23.9994 21.933 24 21.1872V6.4992C23.999 5.7536 23.7024 5.03883 23.175 4.51173C22.6477 3.98462 21.9328 3.68824 21.1872 3.6876ZM22.1256 15.672H18.4536C17.4456 15.672 16.6248 14.8524 16.6248 13.8432C16.6248 12.8352 17.4456 12.0156 18.4536 12.0156H22.1256V15.672ZM2.7804 1.8744H17.4984C18.0156 1.8744 18.4356 2.2956 18.4356 2.8128V3.6876H2.7828C2.55058 3.67564 2.33181 3.57497 2.17167 3.40638C2.01153 3.23778 1.92225 3.01413 1.92225 2.7816C1.92225 2.54907 2.01153 2.32542 2.17167 2.15682C2.33181 1.98823 2.55058 1.88756 2.7828 1.8756L2.7804 1.8744ZM21.186 22.1244H2.9532C2.6676 22.1238 2.39387 22.01 2.19192 21.8081C1.98997 21.6061 1.87623 21.3324 1.8756 21.0468V5.412C2.1588 5.5104 2.4636 5.5632 2.7816 5.5632H21.1872C21.7044 5.5632 22.1256 5.9832 22.1256 6.5016V10.14H18.4536C17.4718 10.1413 16.5307 10.5318 15.8364 11.226C15.1422 11.9203 14.7517 12.8614 14.7504 13.8432C14.7517 14.825 15.1422 15.7661 15.8364 16.4604C16.5307 17.1546 17.4718 17.5451 18.4536 17.5464H22.1256V21.1872C22.1253 21.436 22.0263 21.6745 21.8504 21.8504C21.6745 22.0263 21.436 22.1253 21.1872 22.1256L21.186 22.1244Z" fill="#5157E1"/>
</svg>
