<svg width="22" height="24" viewBox="0 0 22 24" fill="none" xmlns="http://www.w3.org/2000/svg">
<path d="M20.5472 3.8868L11.36 0.0708015C11.2459 0.0233368 11.1236 -0.00109863 11 -0.00109863C10.8764 -0.00109863 10.7541 0.0233368 10.64 0.0708015L1.45279 3.888C1.28167 3.95892 1.1354 4.07895 1.03246 4.23294C0.929513 4.38693 0.874508 4.56797 0.87439 4.7532V9.39C0.873557 12.5105 1.80268 15.5605 3.54315 18.1506C5.28362 20.7407 7.75646 22.7533 10.646 23.9316C10.8729 24.024 11.127 24.024 11.354 23.9316C14.2435 22.7533 16.7164 20.7407 18.4568 18.1506C20.1973 15.5605 21.1264 12.5105 21.1256 9.39V4.752C21.1256 4.56673 21.0707 4.38562 20.9677 4.2316C20.8648 4.07758 20.7184 3.95758 20.5472 3.8868ZM19.25 9.3888C19.25 14.8176 16.0628 19.8144 11 22.044C8.54568 20.9619 6.45903 19.1895 4.99422 16.9425C3.52941 14.6955 2.74967 12.0711 2.74999 9.3888V5.3784L11 1.9524L19.25 5.3784V9.3888ZM9.96319 12.5496L13.994 8.52C14.081 8.43286 14.1844 8.36372 14.2981 8.31654C14.4119 8.26937 14.5339 8.24508 14.657 8.24507C14.7802 8.24506 14.9022 8.26932 15.0159 8.31647C15.1297 8.36362 15.2331 8.43274 15.3201 8.51987C15.4072 8.607 15.4762 8.71043 15.5232 8.82425C15.5703 8.93807 15.5944 9.06005 15.5943 9.18321C15.5942 9.30637 15.5698 9.4283 15.5225 9.54203C15.4752 9.65576 15.406 9.75905 15.3188 9.846L10.6268 14.538C10.5398 14.6251 10.4364 14.6942 10.3226 14.7414C10.2089 14.7885 10.0869 14.8128 9.96379 14.8128C9.84064 14.8128 9.71871 14.7885 9.60494 14.7414C9.49118 14.6942 9.38783 14.6251 9.30079 14.538L6.68119 11.9184C6.50535 11.7426 6.40657 11.5041 6.40657 11.2554C6.40657 11.0067 6.50535 10.7682 6.68119 10.5924C6.85703 10.4166 7.09552 10.3178 7.34419 10.3178C7.59286 10.3178 7.83135 10.4166 8.00719 10.5924L9.96319 12.5484V12.5496Z" fill="#FF7262"/>
</svg>
