<svg width="24" height="24" viewBox="0 0 24 24" fill="none" xmlns="http://www.w3.org/2000/svg">
<path d="M19.3799 23.993H19.379C14.4484 23.993 9.51691 24.0087 4.5854 23.993C2.2004 23.9709 0.00738389 21.9006 0 19.3799V4.61401C0.0341505 3.90423 0.962675 3.42705 1.52754 3.91623C1.6826 4.05099 1.78967 4.23743 1.82936 4.43956C1.84413 4.51617 1.84228 4.53555 1.84597 4.61401C1.84597 9.54737 1.79982 14.4807 1.84597 19.4132C1.86812 20.841 3.104 22.1332 4.59647 22.1471C8.29395 22.1591 11.9905 22.1471 15.688 22.1471C15.6705 22.1249 15.6538 22.1018 15.6372 22.0778C15.0714 21.2887 14.7678 20.338 14.765 19.3799V1.84505H0.922986C0.922986 1.84505 0.0332274 1.64199 0.000922919 0.966366C-0.0221517 0.471646 0.409806 0.0239976 0.922986 0H15.688C16.1836 0.0221517 16.587 0.415344 16.611 0.922063C16.611 7.08576 16.5538 13.2504 16.611 19.4132C16.6331 20.8253 17.8487 22.1101 19.3236 22.1471C19.3966 22.1387 19.3744 22.1517 19.5405 22.1424C20.9269 22.0594 22.1434 20.8244 22.148 19.3772V11.074H19.379C19.379 11.074 18.9323 11.0251 18.7025 10.7786C18.2622 10.3033 18.5197 9.34708 19.2415 9.23817C19.3024 9.22894 19.3181 9.22986 19.379 9.22801H23.071C23.0931 9.22894 23.1162 9.22986 23.1393 9.23078C23.3506 9.25386 23.3839 9.27693 23.4706 9.31939C23.7817 9.46892 23.9801 9.80211 23.993 10.151C23.993 13.2365 24.0032 16.323 23.993 19.4086C23.9709 21.812 21.8655 23.9847 19.3809 23.993H19.3799ZM10.151 18.456H6.45998C5.7419 18.4422 5.25918 17.4851 5.77605 16.9137C5.94772 16.7236 6.19877 16.6156 6.45998 16.6101H10.151C10.163 16.611 10.1759 16.611 10.1879 16.611C10.9937 16.659 11.4026 17.9244 10.5747 18.3527C10.4445 18.42 10.3005 18.4533 10.151 18.456ZM11.997 14.765H4.61401C4.40264 14.7585 4.3325 14.7309 4.21343 14.6736C3.64764 14.4004 3.52765 13.4811 4.08052 13.0898C4.19313 13.0095 4.32327 12.955 4.45987 12.932C4.51063 12.9237 4.56232 12.9209 4.61401 12.919H11.997C12.0136 12.92 12.0311 12.92 12.0487 12.9209C12.728 12.9781 13.1959 13.8845 12.6846 14.4567C12.5111 14.6506 12.3348 14.7558 11.997 14.765ZM11.997 11.074H4.61401C3.90792 11.0537 3.40305 10.1205 3.92638 9.53537C4.09898 9.34154 4.2762 9.23725 4.61401 9.22801H11.997C12.0136 9.22801 12.0311 9.22894 12.0487 9.22894C12.7307 9.28709 13.1812 10.2101 12.6846 10.7657C12.5111 10.9595 12.3348 11.0638 11.997 11.074ZM11.997 7.38204H4.61401C3.90977 7.36266 3.40674 6.42491 3.92638 5.84435C4.09898 5.65052 4.2762 5.54622 4.61401 5.53699H11.997C12.0136 5.53699 12.0311 5.53792 12.0487 5.53792C12.26 5.55545 12.3274 5.58776 12.4428 5.65144C12.9744 5.94588 13.0723 6.82825 12.5305 7.21221C12.4179 7.29159 12.2877 7.34605 12.1511 7.36912C12.1004 7.37743 12.0487 7.38112 11.997 7.38204Z" fill="#33F952"/>
</svg>
