<svg width="24" height="22" viewBox="0 0 24 22" fill="none" xmlns="http://www.w3.org/2000/svg">
<path d="M24 11C24 16.6087 19.4609 21.1739 13.8783 21.1739C11.8174 21.1739 9.83478 20.5478 8.13913 19.4C7.66957 19.0609 7.53913 18.4348 7.87826 17.9392C8.21739 17.4696 8.84348 17.3392 9.33913 17.6783C10.6696 18.5913 12.2609 19.087 13.8783 19.087C18.313 19.087 21.913 15.4609 21.913 11C21.913 6.53915 18.313 2.91307 13.8783 2.91307C9.54783 2.91307 6 6.38263 5.84348 10.7131L8.26957 8.26089C8.68696 7.8435 9.33913 7.8435 9.75652 8.26089C10.1739 8.67828 10.1739 9.33046 9.75652 9.74785L5.76522 13.7392C5.55652 13.9479 5.29565 14.0522 5.03478 14.0522C4.74783 14.0522 4.48696 13.9479 4.30435 13.7392L0.313043 9.72176C-0.104348 9.30437 -0.104348 8.6522 0.313043 8.23481C0.730435 7.81742 1.38261 7.81742 1.8 8.23481L3.78261 10.2435C4.14783 5.00002 8.53043 0.826111 13.8783 0.826111C19.4609 0.826111 24 5.39133 24 11ZM13.8261 5.07828C13.2522 5.07828 12.7826 5.54785 12.7826 6.12176V11C12.7826 11.287 12.913 11.5478 13.1217 11.7305L15.3652 13.9739C15.5739 14.1826 15.8348 14.287 16.1217 14.287C16.3826 14.287 16.6696 14.1826 16.8522 13.9739C17.2696 13.5565 17.2435 12.9044 16.8261 12.487L14.8696 10.5565V6.12176C14.8696 5.54785 14.4 5.07828 13.8261 5.07828Z" fill="#E9B32B"/>
</svg>
