<svg width="24" height="24" viewBox="0 0 24 24" fill="none" xmlns="http://www.w3.org/2000/svg">
<path d="M23.649 3.10611L20.7494 0.335426C20.6382 0.229087 20.5061 0.14473 20.3607 0.0871767C20.2154 0.0296231 20.0596 0 19.9022 0C19.7449 0 19.5891 0.0296231 19.4437 0.0871767C19.2983 0.14473 19.1663 0.229087 19.055 0.335426L13.5671 5.57931C13.3424 5.79399 13.2161 6.08515 13.216 6.38878V9.15947C13.2161 9.46313 13.3423 9.75433 13.567 9.96905C13.7917 10.1838 14.0965 10.3044 14.4143 10.3044H17.3145C17.6322 10.3043 17.937 10.1837 18.1616 9.96894L23.649 4.72504C23.7603 4.61876 23.8486 4.49257 23.9088 4.35368C23.969 4.21479 24 4.06592 24 3.91558C24 3.76523 23.969 3.61637 23.9088 3.47748C23.8486 3.33859 23.7603 3.21239 23.649 3.10611ZM16.8183 8.01454H15.6125V6.8629L19.9022 2.76394L21.1075 3.91558L16.8183 8.01454ZM20.3697 11.4057C20.0519 11.4057 19.7471 11.5264 19.5224 11.7411C19.2977 11.9558 19.1715 12.247 19.1715 12.5507V15.2889L17.3976 13.5938C16.773 12.9982 15.9266 12.6637 15.0441 12.6637C14.1617 12.6637 13.3153 12.9982 12.6907 13.5938L11.8543 14.393L8.87547 11.5466C8.2516 10.9513 7.40601 10.617 6.52438 10.617C5.64275 10.617 4.79716 10.9513 4.17328 11.5466L2.39643 13.2445V6.826C2.39685 6.52246 2.52322 6.23147 2.74784 6.01684C2.97246 5.80221 3.27699 5.68146 3.59465 5.68106H10.784C11.1017 5.68106 11.4065 5.56044 11.6312 5.34572C11.8559 5.131 11.9822 4.83979 11.9822 4.53613C11.9822 4.23247 11.8559 3.94126 11.6312 3.72654C11.4065 3.51182 11.1017 3.3912 10.784 3.3912H3.59465C2.64161 3.39219 1.7279 3.75439 1.054 4.39832C0.380096 5.04226 0.00104029 5.91534 0 6.826V20.5652C0.00104029 21.4759 0.380096 22.3489 1.054 22.9929C1.7279 23.6368 2.64161 23.999 3.59465 24H17.9733C18.9263 23.999 19.84 23.6368 20.5139 22.9929C21.1878 22.3489 21.5669 21.4759 21.5679 20.5652V12.5507C21.5679 12.247 21.4417 11.9558 21.217 11.7411C20.9923 11.5264 20.6875 11.4057 20.3697 11.4057ZM3.59465 21.7101C3.27699 21.7097 2.97246 21.589 2.74784 21.3744C2.52322 21.1597 2.39685 20.8687 2.39643 20.5652V16.4825L5.86767 13.1656C6.04536 13.0056 6.28027 12.9165 6.52441 12.9165C6.76854 12.9165 7.00346 13.0056 7.18114 13.1656L10.9771 16.7917C10.9873 16.8022 10.991 16.8167 11.0016 16.8268L16.1126 21.7101H3.59465ZM19.1715 20.5652C19.1655 20.7859 19.091 21 18.9573 21.1801L13.5487 16.012L14.385 15.2129C14.5601 15.0464 14.7971 14.9529 15.0441 14.9529C15.2911 14.9529 15.5281 15.0464 15.7032 15.2129L19.1715 18.5269V20.5652Z" fill="#217AFF"/>
</svg>
