<svg width="70" height="70" viewBox="0 0 70 70" fill="none" xmlns="http://www.w3.org/2000/svg">
<g clip-path="url(#clip0_35_215)">
<path d="M4.97535 34.9991C4.97535 46.8843 11.8821 57.1544 21.8973 62.022L7.57486 22.7797C5.85792 26.6245 4.9721 30.7884 4.97535 34.9991ZM55.2699 33.484C55.2699 29.7732 53.937 27.2034 52.7938 25.2032C51.2718 22.73 49.8458 20.6355 49.8458 18.1623C49.8458 15.4022 51.9385 12.833 54.8871 12.833C55.0202 12.833 55.1465 12.8496 55.2768 12.857C49.9343 7.96305 42.8174 4.97504 35.0006 4.97504C24.5111 4.97504 15.2826 10.3569 9.91385 18.5085C10.6183 18.5296 11.2827 18.5439 11.8461 18.5439C14.9866 18.5439 19.848 18.1628 19.848 18.1628C21.4665 18.0674 21.6574 20.4447 20.0411 20.6361C20.0411 20.6361 18.414 20.8275 16.604 20.9223L27.538 53.4448L34.1093 33.7382L29.4308 20.9218C27.8139 20.8269 26.2822 20.6355 26.2822 20.6355C24.6642 20.5407 24.8539 18.0669 26.4719 18.1623C26.4719 18.1623 31.4304 18.5433 34.3807 18.5433C37.5207 18.5433 42.3826 18.1623 42.3826 18.1623C44.0023 18.0669 44.1926 20.4441 42.5751 20.6355C42.5751 20.6355 40.9452 20.8269 39.1386 20.9218L49.9892 53.198L52.9835 43.1901C54.2821 39.0372 55.2699 36.0543 55.2699 33.484Z" fill="#00749A"/>
<path d="M35.5274 37.6255L26.5188 63.8023C29.273 64.614 32.1294 65.0261 35.0006 65.0261C38.4971 65.0261 41.8502 64.4211 44.9713 63.3241C44.8876 63.1931 44.8161 63.0546 44.7577 62.9105L35.5274 37.6255ZM61.3465 20.5939C61.4757 21.5503 61.5488 22.5775 61.5488 23.6813C61.5488 26.7281 60.9798 30.1532 59.2658 34.4358L50.0944 60.9526C59.0207 55.7473 65.0247 46.0765 65.0247 34.9992C65.0327 29.9641 63.7674 25.0088 61.3465 20.5939Z" fill="#00749A"/>
<path d="M35.0005 0C15.7019 0 0.000244141 15.7005 0.000244141 34.9991C0.000244141 54.3001 15.7013 70.0006 35.0005 70.0006C54.2986 70.0006 70.0025 54.3007 70.0025 34.9991C70.002 15.7005 54.2986 0 35.0005 0ZM35.0005 68.3957C16.5868 68.3957 1.60509 53.414 1.60509 34.9991C1.60509 16.586 16.5863 1.60541 35.0005 1.60541C53.4136 1.60541 68.3943 16.586 68.3943 34.9991C68.3943 53.414 53.4131 68.3957 35.0005 68.3957Z" fill="#00749A"/>
</g>
<defs>
<clipPath id="clip0_35_215">
<rect width="70" height="70" fill="white"/>
</clipPath>
</defs>
</svg>
